PathFileType	4	(X/Y/Z)	E:\MaartenAfschrift\ProcessCardiffData\Gait_Perturbation\osimData\Patient10\Static.trc
DataRate	CameraRate	NumFrames	NumMarkers	Units	OrigDataRate	OrigDataStartFrame	OrigNumFrames
200.000000	200.000000	4	54	m	200.000000	580	927
Frame#	Times	LFHD			RFHD			LBHD			RBHD			C7			CLAV			LSHO			LUA1			LELB			LLA1			LWRA			LWRB			LFIN			RSHO			RUA1			RELB			RLA1			RWRA			RWRB			RFIN			LASI			RASI			RPSI			LPSI			LTHI			LTHI2			LTHI3			LKNE			LKNEmed			LTIB			LTIB2			LTIB3			LANK			LANKmed			LHEE			LTOE			LLatFoot			RTHI			RTHI2			RTHI3			RKNE			RKNEmed			RTIB			RTIB2			RTIB3			RANK			RANKmed			RHEE			RTOE			RLatFoot			Block1			Block2			Block3			Block4
		X1	Y1	Z1	X2	Y2	Z2	X3	Y3	Z3	X4	Y4	Z4	X5	Y5	Z5	X6	Y6	Z6	X7	Y7	Z7	X8	Y8	Z8	X9	Y9	Z9	X10	Y10	Z10	X11	Y11	Z11	X12	Y12	Z12	X13	Y13	Z13	X14	Y14	Z14	X15	Y15	Z15	X16	Y16	Z16	X17	Y17	Z17	X18	Y18	Z18	X19	Y19	Z19	X20	Y20	Z20	X21	Y21	Z21	X22	Y22	Z22	X23	Y23	Z23	X24	Y24	Z24	X25	Y25	Z25	X26	Y26	Z26	X27	Y27	Z27	X28	Y28	Z28	X29	Y29	Z29	X30	Y30	Z30	X31	Y31	Z31	X32	Y32	Z32	X33	Y33	Z33	X34	Y34	Z34	X35	Y35	Z35	X36	Y36	Z36	X37	Y37	Z37	X38	Y38	Z38	X39	Y39	Z39	X40	Y40	Z40	X41	Y41	Z41	X42	Y42	Z42	X43	Y43	Z43	X44	Y44	Z44	X45	Y45	Z45	X46	Y46	Z46	X47	Y47	Z47	X48	Y48	Z48	X49	Y49	Z49	X50	Y50	Z50	X51	Y51	Z51	X52	Y52	Z52	X53	Y53	Z53	X54	Y54	Z54

580	2.9	0.0097707	1.5784	-0.005717	-0.072956	1.593	0.10999	-0.13117	1.5911	-0.072312	-0.19699	1.6081	0.066809	-0.27325	1.475	0.021808	-0.12795	1.4031	0.016572	-0.21927	1.4246	-0.16489	-0.19238	1.2309	-0.20377	-0.20919	1.0931	-0.21169	-0.13801	0.9817	-0.19951	-0.10725	0.86386	-0.15216	-0.12317	0.84462	-0.21512	-0.087059	0.80727	-0.19602	-0.20552	1.4606	0.17274	-0.20517	1.2918	0.27177	-0.20573	1.1086	0.28651	-0.13738	1.0116	0.27038	-0.11139	0.87342	0.23797	-0.15002	0.86477	0.29795	-0.10193	0.81943	0.28772	-0.089958	0.97478	-0.089681	-0.084863	0.97565	0.14024	-0.30864	1.0067	0.055052	-0.30829	1.0133	0.010378	-0.18993	0.66249	-0.15065	-0.24332	0.66821	-0.14446	-0.21813	0.61845	-0.14019	-0.2093	0.50306	-0.11674	-0.21463	0.48232	-0.0053326	-0.24048	0.35033	-0.14804	-0.30193	0.35161	-0.13842	-0.27114	0.30336	-0.14235	-0.24134	0.082222	-0.13046	-0.21094	0.1008	-0.050998	-0.28181	0.044688	-0.079183	-0.06461	0.057179	-0.087457	-0.15249	0.026523	-0.15049	-0.17923	0.75487	0.23173	-0.25519	0.75679	0.2229	-0.22064	0.70977	0.22776	-0.2251	0.50019	0.17582	-0.22524	0.49174	0.059586	-0.24222	0.28444	0.20856	-0.30243	0.2751	0.20024	-0.2691	0.23996	0.20539	-0.22958	0.096583	0.19831	-0.21436	0.10543	0.11933	-0.27795	0.04747	0.15438	-0.058801	0.054583	0.14008	-0.13448	0.027701	0.21824	0.4608	0.033804	-0.54969	-0.32128	0.025764	-0.5435	-0.3931	0.023678	0.54155	0.54751	0.040665	0.54035
581	2.905	0.0095824	1.5786	-0.0056406	-0.073195	1.5932	0.10997	-0.13147	1.5912	-0.072218	-0.19723	1.6081	0.066933	-0.2733	1.475	0.021851	-0.12798	1.4032	0.016643	-0.21933	1.4246	-0.16483	-0.19218	1.2309	-0.20366	-0.20905	1.0931	-0.21166	-0.13791	0.98172	-0.19952	-0.1071	0.8639	-0.15216	-0.12299	0.84465	-0.21512	-0.086916	0.8073	-0.19605	-0.20554	1.4605	0.17281	-0.20513	1.2917	0.27185	-0.20551	1.1086	0.28651	-0.13727	1.0116	0.27039	-0.11121	0.87342	0.23795	-0.14969	0.86462	0.29785	-0.10166	0.81944	0.2877	-0.089816	0.9748	-0.089664	-0.084737	0.97566	0.14025	-0.30851	1.0067	0.055097	-0.30814	1.0132	0.010389	-0.18984	0.66246	-0.15066	-0.24327	0.66819	-0.14444	-0.21806	0.61844	-0.14018	-0.20922	0.50304	-0.11671	-0.21459	0.48233	-0.0053466	-0.24045	0.35014	-0.14793	-0.30194	0.35159	-0.13844	-0.27114	0.30331	-0.14238	-0.24126	0.082215	-0.1304	-0.211	0.10078	-0.050914	-0.28182	0.044687	-0.079161	-0.064574	0.057132	-0.087458	-0.15231	0.026551	-0.15044	-0.17911	0.7549	0.23174	-0.25511	0.75686	0.223	-0.2205	0.70978	0.2278	-0.22504	0.50016	0.17581	-0.22521	0.49176	0.059571	-0.24202	0.28448	0.20851	-0.30232	0.27514	0.20023	-0.26896	0.23996	0.20529	-0.22969	0.096602	0.19835	-0.21435	0.10545	0.11936	-0.27794	0.047477	0.15437	-0.058817	0.054545	0.14008	-0.13452	0.027721	0.21825	0.4608	0.033776	-0.54971	-0.32126	0.025797	-0.54349	-0.39316	0.0237	0.54163	0.54747	0.04065	0.54033
582	2.91	0.0093668	1.5789	-0.0055908	-0.073381	1.5933	0.11006	-0.13167	1.5913	-0.07217	-0.19744	1.608	0.067026	-0.27333	1.4749	0.02198	-0.12792	1.4032	0.016696	-0.21936	1.4246	-0.16474	-0.19233	1.231	-0.20375	-0.20912	1.0931	-0.21166	-0.13782	0.98174	-0.19953	-0.10695	0.86393	-0.1522	-0.12282	0.84467	-0.21511	-0.086766	0.80735	-0.19606	-0.20555	1.4605	0.1729	-0.20507	1.2917	0.27193	-0.20551	1.1085	0.28663	-0.13712	1.0116	0.27045	-0.11104	0.87342	0.23797	-0.1495	0.86459	0.2979	-0.10147	0.81943	0.2877	-0.089647	0.97481	-0.089662	-0.084577	0.97569	0.14024	-0.30833	1.0067	0.055094	-0.30799	1.0132	0.01042	-0.18978	0.66245	-0.15063	-0.24316	0.66821	-0.14441	-0.21797	0.61843	-0.14017	-0.20913	0.50303	-0.11667	-0.21456	0.48232	-0.0053085	-0.24036	0.3503	-0.14802	-0.30181	0.3516	-0.13846	-0.27102	0.30335	-0.14231	-0.24139	0.082239	-0.13042	-0.21096	0.10078	-0.050908	-0.28176	0.044702	-0.079116	-0.064551	0.057083	-0.087406	-0.15254	0.026488	-0.15049	-0.17893	0.7549	0.23172	-0.25497	0.75688	0.22307	-0.22036	0.70973	0.22776	-0.22483	0.50019	0.17579	-0.22513	0.49178	0.059578	-0.24188	0.28447	0.20852	-0.3022	0.27515	0.20024	-0.26888	0.23998	0.20527	-0.22971	0.096607	0.19836	-0.21397	0.10552	0.1192	-0.27798	0.047471	0.15437	-0.058815	0.054512	0.14005	-0.13448	0.027728	0.2182	0.46079	0.033827	-0.54963	-0.32127	0.025746	-0.54354	-0.39308	0.023651	0.5415	0.54751	0.040661	0.54033
583	2.915	0.0091551	1.5792	-0.0055152	-0.073575	1.5934	0.11014	-0.13188	1.5914	-0.072017	-0.19768	1.608	0.067167	-0.27337	1.4749	0.022061	-0.12801	1.4032	0.01675	-0.21938	1.4246	-0.16463	-0.19229	1.231	-0.20372	-0.20904	1.0931	-0.21165	-0.1377	0.98177	-0.19952	-0.10685	0.86396	-0.15221	-0.12323	0.84468	-0.21522	-0.086595	0.80739	-0.19606	-0.20559	1.4605	0.17295	-0.20504	1.2917	0.27199	-0.20537	1.1084	0.28666	-0.13691	1.0116	0.27048	-0.11087	0.87343	0.23796	-0.14943	0.86475	0.298	-0.10125	0.81941	0.28768	-0.08951	0.97483	-0.089649	-0.084457	0.97571	0.14024	-0.3082	1.0066	0.055134	-0.30785	1.0131	0.010428	-0.18964	0.66243	-0.15061	-0.24317	0.66811	-0.14458	-0.21787	0.6184	-0.14013	-0.20906	0.50302	-0.11665	-0.21455	0.48229	-0.005292	-0.24027	0.3503	-0.14801	-0.30177	0.35158	-0.13843	-0.27093	0.30331	-0.14237	-0.24134	0.082222	-0.13037	-0.21089	0.10077	-0.05088	-0.28174	0.044727	-0.079159	-0.06457	0.057004	-0.087393	-0.15253	0.026447	-0.15049	-0.17878	0.7549	0.23172	-0.25467	0.75685	0.22299	-0.22022	0.70975	0.22776	-0.22476	0.50019	0.17578	-0.22507	0.49178	0.059562	-0.2418	0.28445	0.20852	-0.30213	0.27518	0.20026	-0.26887	0.23998	0.20534	-0.22966	0.096621	0.1983	-0.21399	0.10552	0.11916	-0.27796	0.047498	0.15436	-0.058772	0.054473	0.13999	-0.13447	0.027729	0.2182	0.46079	0.033776	-0.54968	-0.32129	0.025765	-0.5435	-0.3931	0.023695	0.54158	0.54752	0.040656	0.54031
